/* XPM */
static char * ah3_48_xpm[] = {
"48 48 163 2",
"  	c #FFFFFF",
". 	c #FDFEFC",
"+ 	c #F3F9EF",
"@ 	c #F9FCF7",
"# 	c #F6F6FC",
"$ 	c #A5A5DD",
"% 	c #5A5AC1",
"& 	c #2A2AAF",
"* 	c #1010A5",
"= 	c #0A0AA3",
"- 	c #1A1AA9",
"; 	c #4242B8",
"> 	c #8383D0",
", 	c #DCDCF2",
"' 	c #DBEDCF",
") 	c #409E00",
"! 	c #CAE4B8",
"~ 	c #FEFEFF",
"{ 	c #9B9BD9",
"] 	c #1818A8",
"^ 	c #00009F",
"/ 	c #0303A0",
"( 	c #5D5DC2",
"_ 	c #E7E7F6",
": 	c #EFD9D9",
"< 	c #E1B7B7",
"[ 	c #E9CBCB",
"} 	c #68B235",
"| 	c #FEFFFE",
"1 	c #F7F7FC",
"2 	c #5555BF",
"3 	c #1616A7",
"4 	c #C2C2E8",
"5 	c #C67878",
"6 	c #930000",
"7 	c #B14848",
"8 	c #C5E1B1",
"9 	c #FCFCFE",
"0 	c #4D4DBC",
"a 	c #C3C3E8",
"b 	c #63B02F",
"c 	c #FEFEFD",
"d 	c #1717A8",
"e 	c #E8E8F6",
"f 	c #F0F7EB",
"g 	c #58AA20",
"h 	c #BFDEA9",
"i 	c #DDDDF2",
"j 	c #0707A2",
"k 	c #6060C3",
"l 	c #B4D99B",
"m 	c #47A20A",
"n 	c #DEEED3",
"o 	c #6868C6",
"p 	c #0404A1",
"q 	c #56A91E",
"r 	c #43A004",
"s 	c #B6DA9E",
"t 	c #0E0EA4",
"u 	c #7B7BCD",
"v 	c #F4F9F0",
"w 	c #DDEED2",
"x 	c #CEE6BD",
"y 	c #71B741",
"z 	c #47A109",
"A 	c #ECF5E6",
"B 	c #B5B5E3",
"C 	c #2D2DB0",
"D 	c #F1F8EC",
"E 	c #429F03",
"F 	c #B3D99A",
"G 	c #7979CD",
"H 	c #4444B9",
"I 	c #2E2EB0",
"J 	c #01019F",
"K 	c #BA707A",
"L 	c #EEF6E8",
"M 	c #9DCD7C",
"N 	c #2B2BAF",
"O 	c #FDFDFE",
"P 	c #F0F0F9",
"Q 	c #0F0FA5",
"R 	c #9B5E80",
"S 	c #E3F1D9",
"T 	c #91C76C",
"U 	c #C0DFAB",
"V 	c #BDDEA7",
"W 	c #68B336",
"X 	c #A5D187",
"Y 	c #6565C5",
"Z 	c #4747BA",
"` 	c #865185",
" .	c #D4E9C6",
"..	c #1D1DAA",
"+.	c #7676CB",
"@.	c #784887",
"#.	c #7DBD51",
"$.	c #1414A7",
"%.	c #7878CC",
"&.	c #6E4389",
"*.	c #83C05A",
"=.	c #F7FBF4",
"-.	c #1111A5",
";.	c #6A408A",
">.	c #A4D185",
",.	c #7DBD52",
"'.	c #71B742",
").	c #7BBC4F",
"!.	c #9CCD7B",
"~.	c #DAECCD",
"{.	c #1313A6",
"].	c #7A7ACD",
"^.	c #6262C4",
"/.	c #6D428A",
"(.	c #FCF8F8",
"_.	c #EDD4D4",
":.	c #F2E1E1",
"<.	c #FEFDFD",
"[.	c #6F4389",
"}.	c #F7EDED",
"|.	c #C16C6C",
"1.	c #990E0E",
"2.	c #9F1C1C",
"3.	c #C87D7D",
"4.	c #FAF4F4",
"5.	c #A42828",
"6.	c #A01E1E",
"7.	c #A42929",
"8.	c #F3E3E3",
"9.	c #A93333",
"0.	c #FDFAFA",
"a.	c #D39696",
"b.	c #1212A6",
"c.	c #3A3AB5",
"d.	c #6C418A",
"e.	c #A62D2D",
"f.	c #69408A",
"g.	c #930101",
"h.	c #E0B6B6",
"i.	c #D59B9B",
"j.	c #AD3D3D",
"k.	c #C57777",
"l.	c #A12020",
"m.	c #D09191",
"n.	c #9A1111",
"o.	c #FCF7F7",
"p.	c #E5C2C2",
"q.	c #D08F8F",
"r.	c #AC3C3C",
"s.	c #B14747",
"t.	c #FFFEFE",
"u.	c #2222AC",
"v.	c #4848BA",
"w.	c #1B1BA9",
"x.	c #6161C4",
"y.	c #1919A8",
"z.	c #0909A2",
"A.	c #7D7DCE",
"B.	c #6666C5",
"C.	c #7A62AA",
"D.	c #C27070",
"E.	c #D39898",
"F.	c #E4C0C0",
"                                                                                                ",
"                                                                                                ",
"                                                                                                ",
"                                                                      . + + + + + + + + @       ",
"                # $ % & * = - ; > ,                                   ' ) ) ) ) ) ) ) ) !       ",
"            ~ { ] ^ ^ ^ ^ ^ ^ ^ ^ / ( _         : < < < < < < < [     ' ) ) ) ) ) ) ) } |       ",
"          1 2 ^ ^ ^ ^ ^ ^ ^ ^ ^ ^ ^ ^ 3 4       5 6 6 6 6 6 6 6 7     ' ) ) ) ) ) ) ) 8         ",
"        9 0 ^ ^ ^ ^ ^ ^ ^ ^ ^ ^ ^ ^ ^ ^ = a     5 6 6 6 6 6 6 6 7     ' ) ) ) ) ) ) b c         ",
"        > ^ ^ ^ ^ ^ ^ ^ ^ ^ ^ ^ ^ ^ ^ ^ ^ d e   5 6 6 6 6 6 6 6 7     . + f g ) ) ) h           ",
"      i j ^ ^ ^ ^ ^ ^ ^ ^ ^ ^ ^ ^ ^ ^ ^ ^ ^ k   5 6 6 6 6 6 6 6 7         l ) ) ) m n           ",
"      o ^ ^ ^ ^ ^ ^ ^ ^ ^ ^ ^ ^ ^ ^ ^ ^ ^ ^ p , 5 6 6 6 6 6 6 6 7       @ q ) ) ) ) r s         ",
"    # t ^ ^ ^ ^ ^ ^ ^ ^ ^ ^ ^ ^ ^ ^ ^ ^ ^ ^ ^ u 5 6 6 6 6 6 6 6 7       v w x y ) ) ) z A       ",
"    B ^ ^ ^ ^ ^ ^ ^ ^ ^ ^ ^ ^ ^ ^ ^ ^ ^ ^ ^ ^ C 5 6 6 6 6 6 6 6 7             D E ) ) ) F       ",
"    G ^ ^ ^ ^ ^ ^ ^ ^ ^ H G I ^ ^ ^ ^ ^ ^ ^ ^ J K 6 6 6 6 6 6 6 7             L E ) ) ) M       ",
"    0 ^ ^ ^ ^ ^ ^ ^ ^ N O   P Q ^ ^ ^ ^ ^ ^ ^ ^ R 6 6 6 6 6 6 6 7     S T U V W ) ) ) ) X       ",
"    C ^ ^ ^ ^ ^ ^ ^ ^ Y       Z ^ ^ ^ ^ ^ ^ ^ ^ ` 6 6 6 6 6 6 6 7     ' ) ) ) ) ) ) ) )  .      ",
"    ..^ ^ ^ ^ ^ ^ ^ ^ +.      ( ^ ^ ^ ^ ^ ^ ^ ^ @.6 6 6 6 6 6 6 7     ' ) ) ) ) ) ) ) #.        ",
"    $.^ ^ ^ ^ ^ ^ ^ ^ %.      k ^ ^ ^ ^ ^ ^ ^ ^ &.6 6 6 6 6 6 6 7     ' ) ) ) ) ) ) *.=.        ",
"    -.^ ^ ^ ^ ^ ^ ^ ^ %.      k ^ ^ ^ ^ ^ ^ ^ ^ ;.6 6 6 6 6 6 6 7     v >.,.'.).!.~.            ",
"    {.J J J J J J J J ].      ^.J J J J J J J J /.6 6 6 6 6 6 6 7     (._.[ :.<.                ",
"    {.^ ^ ^ ^ ^ ^ ^ ^ ].      ^.^ ^ ^ ^ ^ ^ ^ ^ [.6 6 6 6 6 6 6 7 }.|.1.6 6 6 2.3.4.            ",
"    {.^ ^ ^ ^ ^ ^ ^ ^ ].      ^.^ ^ ^ ^ ^ ^ ^ ^ [.6 6 6 6 6 6 6 5.6.6 6 6 6 6 6 6 7.8.          ",
"    {.^ ^ ^ ^ ^ ^ ^ ^ ].      ^.^ ^ ^ ^ ^ ^ ^ ^ [.6 6 6 6 6 6 6 6 6 6 6 6 6 6 6 6 6 9.0.        ",
"    {.^ ^ ^ ^ ^ ^ ^ ^ ].      ^.^ ^ ^ ^ ^ ^ ^ ^ [.6 6 6 6 6 6 6 6 6 6 6 6 6 6 6 6 6 6 a.        ",
"    b.J J J J J J J J c.%.%.%.I J J J J J J J J d.6 6 6 6 6 6 6 6 6 6 6 6 6 6 6 6 6 6 e.        ",
"    * ^ ^ ^ ^ ^ ^ ^ ^ ^ ^ ^ ^ ^ ^ ^ ^ ^ ^ ^ ^ ^ f.6 6 6 6 6 6 6 6 6 6 6 6 6 6 6 6 6 6 g.8.      ",
"    * ^ ^ ^ ^ ^ ^ ^ ^ ^ ^ ^ ^ ^ ^ ^ ^ ^ ^ ^ ^ ^ f.6 6 6 6 6 6 6 6 6 6 6 6 6 6 6 6 6 6 6 h.      ",
"    * ^ ^ ^ ^ ^ ^ ^ ^ ^ ^ ^ ^ ^ ^ ^ ^ ^ ^ ^ ^ ^ f.6 6 6 6 6 6 6 6 6 6 6 6 6 6 6 6 6 6 6 i.      ",
"    * ^ ^ ^ ^ ^ ^ ^ ^ ^ ^ ^ ^ ^ ^ ^ ^ ^ ^ ^ ^ ^ f.6 6 6 6 6 6 6 6 j.k.l.6 6 6 6 6 6 6 6 m.      ",
"    * ^ ^ ^ ^ ^ ^ ^ ^ ^ ^ ^ ^ ^ ^ ^ ^ ^ ^ ^ ^ ^ f.6 6 6 6 6 6 6 n.o.  p.6 6 6 6 6 6 6 6 q.      ",
"    * ^ ^ ^ ^ ^ ^ ^ ^ ^ ^ ^ ^ ^ ^ ^ ^ ^ ^ ^ ^ ^ f.6 6 6 6 6 6 6 r.    4.6 6 6 6 6 6 6 6 q.      ",
"    * ^ ^ ^ ^ ^ ^ ^ ^ ^ ^ ^ ^ ^ ^ ^ ^ ^ ^ ^ ^ ^ f.6 6 6 6 6 6 6 s.    t.6 6 6 6 6 6 6 6 q.      ",
"    * ^ ^ ^ ^ ^ ^ ^ ^ u.v.v.v.w.^ ^ ^ ^ ^ ^ ^ ^ f.6 6 6 6 6 6 6 7       6 6 6 6 6 6 6 6 q.      ",
"    * ^ ^ ^ ^ ^ ^ ^ ^ %.      k ^ ^ ^ ^ ^ ^ ^ ^ f.6 6 6 6 6 6 6 7       6 6 6 6 6 6 6 6 q.      ",
"    * ^ ^ ^ ^ ^ ^ ^ ^ %.      k ^ ^ ^ ^ ^ ^ ^ ^ f.6 6 6 6 6 6 6 7       6 6 6 6 6 6 6 6 q.      ",
"    * ^ ^ ^ ^ ^ ^ ^ ^ %.      k ^ ^ ^ ^ ^ ^ ^ ^ f.6 6 6 6 6 6 6 7       6 6 6 6 6 6 6 6 q.      ",
"    * ^ ^ ^ ^ ^ ^ ^ ^ %.      k ^ ^ ^ ^ ^ ^ ^ ^ f.6 6 6 6 6 6 6 7       6 6 6 6 6 6 6 6 q.      ",
"    -.J J J J J J J J %.      x.J J J J J J J J ;.6 6 6 6 6 6 6 7       6 6 6 6 6 6 6 6 q.      ",
"    * ^ ^ ^ ^ ^ ^ ^ ^ %.      k ^ ^ ^ ^ ^ ^ ^ ^ f.6 6 6 6 6 6 6 7       6 6 6 6 6 6 6 6 q.      ",
"    * ^ ^ ^ ^ ^ ^ ^ ^ %.      k ^ ^ ^ ^ ^ ^ ^ ^ f.6 6 6 6 6 6 6 7       6 6 6 6 6 6 6 6 q.      ",
"    * ^ ^ ^ ^ ^ ^ ^ ^ %.      k ^ ^ ^ ^ ^ ^ ^ ^ f.6 6 6 6 6 6 6 7       6 6 6 6 6 6 6 6 q.      ",
"    * ^ ^ ^ ^ ^ ^ ^ ^ %.      k ^ ^ ^ ^ ^ ^ ^ ^ f.6 6 6 6 6 6 6 7       6 6 6 6 6 6 6 6 q.      ",
"    y.z.z.z.z.z.z.z.z.A.      B.z.z.z.z.z.z.z.z.C.D.D.D.D.D.D.D.E.      D.D.D.D.D.D.D.D.F.      ",
"    9 9 9 9 9 9 9 9 9 O       O 9 9 9 9 9 9 9 9 O                                               ",
"                                                                                                ",
"                                                                                                ",
"                                                                                                ",
"                                                                                                "};
