/* XPM */
static char * ah3xs_48_xpm[] = {
"48 48 324 2",
"  	c #FFFFFF",
". 	c #FEFEFF",
"+ 	c #F3F3FA",
"@ 	c #E3E3F4",
"# 	c #DADAF1",
"$ 	c #D8D8F0",
"% 	c #DDDDF2",
"& 	c #ECECF8",
"* 	c #FBFBFD",
"= 	c #F8FCF6",
"- 	c #DBEDCF",
"; 	c #F0F7EB",
"> 	c #DFDFF3",
", 	c #9595D7",
"' 	c #6868C6",
") 	c #4848BA",
"! 	c #3535B3",
"~ 	c #3232B2",
"{ 	c #3B3BB5",
"] 	c #5959C1",
"^ 	c #8383D0",
"/ 	c #BCBCE6",
"( 	c #E0EFD5",
"_ 	c #58AA20",
": 	c #62AF2D",
"< 	c #CEE6BE",
"[ 	c #F5F5FB",
"} 	c #9D9DDA",
"| 	c #3838B4",
"1 	c #0C0CA4",
"2 	c #00009F",
"3 	c #0606A1",
"4 	c #1E1EAA",
"5 	c #6B6BC7",
"6 	c #409E00",
"7 	c #76B948",
"8 	c #EAF4E3",
"9 	c #E8E8F6",
"0 	c #5454BF",
"a 	c #0202A0",
"b 	c #2222AC",
"c 	c #A8A8DE",
"d 	c #FDFDFE",
"e 	c #EFD9D9",
"f 	c #E1B7B7",
"g 	c #E9CBCB",
"h 	c #4EA513",
"i 	c #BCDDA5",
"j 	c #E7E7F6",
"k 	c #6565C5",
"l 	c #1818A8",
"m 	c #B9B9E5",
"n 	c #C57777",
"o 	c #930000",
"p 	c #B14848",
"q 	c #47A20A",
"r 	c #73B844",
"s 	c #EFF7E9",
"t 	c #F8F8FC",
"u 	c #8A8AD3",
"v 	c #3939B4",
"w 	c #D3D3EE",
"x 	c #CAE4B8",
"y 	c #5FAE29",
"z 	c #B9DCA2",
"A 	c #C2C2E8",
"B 	c #1B1BA9",
"C 	c #6666C5",
"D 	c #F0F0F9",
"E 	c #FBFDFA",
"F 	c #A9D38C",
"G 	c #48A20B",
"H 	c #D4E9C6",
"I 	c #F8FBF5",
"J 	c #6969C7",
"K 	c #1C1CAA",
"L 	c #C6C6EA",
"M 	c #E6F2DD",
"N 	c #44A005",
"O 	c #56A91E",
"P 	c #B3D99A",
"Q 	c #F6F6FC",
"R 	c #1414A7",
"S 	c #01019F",
"T 	c #8080CF",
"U 	c #F5FAF2",
"V 	c #D8EBCB",
"W 	c #CBE4B9",
"X 	c #71B741",
"Y 	c #5DAD27",
"Z 	c #DEEED3",
"` 	c #B2B2E2",
" .	c #2A2AAF",
"..	c #C47777",
"+.	c #57AA1F",
"@.	c #B3D899",
"#.	c #7A7ACD",
"$.	c #5858C0",
"%.	c #7878CC",
"&.	c #4343B8",
"*.	c #0404A1",
"=.	c #B76F7A",
"-.	c #FEFEFD",
";.	c #D4E9C5",
">.	c #54A81B",
",.	c #9ECE7E",
"'.	c #5050BD",
").	c #EBEBF7",
"!.	c #DEDEF3",
"~.	c #0F0FA5",
"{.	c #9C5E7F",
"].	c #E3F1DA",
"^.	c #94C970",
"/.	c #BEDEA8",
"(.	c #BDDEA7",
"_.	c #6EB63E",
":.	c #429F03",
"<.	c #A5D187",
"[.	c #F2F2FA",
"}.	c #845084",
"|.	c #4CA410",
"1.	c #CFE7BF",
"2.	c #3434B3",
"3.	c #7575CB",
"4.	c #5C5CC2",
"5.	c #774887",
"6.	c #44A006",
"7.	c #8BC464",
"8.	c #E2E2F4",
"9.	c #3131B1",
"0.	c #7777CC",
"a.	c #5F5FC3",
"b.	c #6E4389",
"c.	c #8AC463",
"d.	c #E6F2DE",
"e.	c #FEFFFE",
"f.	c #3030B1",
"g.	c #6A408A",
"h.	c #F4F9F0",
"i.	c #A1CF82",
"j.	c #7FBE54",
"k.	c #72B743",
"l.	c #7DBD52",
"m.	c #9ECE7D",
"n.	c #D7EAC9",
"o.	c #7676CB",
"p.	c #693F8A",
"q.	c #FEFCFC",
"r.	c #F0DCDC",
"s.	c #E1B8B8",
"t.	c #DFB3B3",
"u.	c #E4C0C0",
"v.	c #F5E7E7",
"w.	c #FFFEFE",
"x.	c #F3E3E3",
"y.	c #C47373",
"z.	c #A83131",
"A.	c #9F1C1C",
"B.	c #9E1A1A",
"C.	c #A12020",
"D.	c #AB3939",
"E.	c #CA8181",
"F.	c #F6EAEA",
"G.	c #A42929",
"H.	c #A01E1E",
"I.	c #EED7D7",
"J.	c #B44E4E",
"K.	c #3737B4",
"L.	c #2D2DB0",
"M.	c #990D0D",
"N.	c #D29595",
"O.	c #FEFDFD",
"P.	c #B14646",
"Q.	c #F3E2E2",
"R.	c #E9CCCC",
"S.	c #940303",
"T.	c #E0B6B6",
"U.	c #D59B9B",
"V.	c #B55050",
"W.	c #C57575",
"X.	c #A83232",
"Y.	c #D19292",
"Z.	c #0C0C9B",
"`.	c #1E1E95",
" +	c #171798",
".+	c #0D0D9B",
"++	c #69408A",
"@+	c #8E1515",
"#+	c #892E2E",
"$+	c #892B2B",
"%+	c #8A2828",
"&+	c #902F2F",
"*+	c #D4CACA",
"=+	c #FDFAFA",
"-+	c #DFB4B4",
";+	c #D08F8F",
">+	c #1B1B96",
",+	c #70707B",
"'+	c #787878",
")+	c #505085",
"!+	c #1D1D96",
"~+	c #67677E",
"{+	c #747479",
"]+	c #535384",
"^+	c #8D1B1B",
"/+	c #7D6262",
"(+	c #7B6C6C",
"_+	c #873434",
":+	c #7D6060",
"<+	c #7B7575",
"[+	c #B3B3B3",
"}+	c #FAF4F4",
"|+	c #4949B9",
"1+	c #4F4F8E",
"2+	c #515185",
"3+	c #0B0B9B",
"4+	c #484887",
"5+	c #10109A",
"6+	c #910808",
"7+	c #805555",
"8+	c #805252",
"9+	c #900B0B",
"0+	c #920303",
"a+	c #8B2121",
"b+	c #807171",
"c+	c #6464B7",
"d+	c #63637F",
"e+	c #2A2A91",
"f+	c #575783",
"g+	c #181897",
"h+	c #8C2020",
"i+	c #7B6A6A",
"j+	c #7A6E6E",
"k+	c #873333",
"l+	c #900C0C",
"m+	c #930101",
"n+	c #936161",
"o+	c #B8B8B8",
"p+	c #6060C0",
"q+	c #3E3E8B",
"r+	c #757579",
"s+	c #5A5A82",
"t+	c #202095",
"u+	c #8B2323",
"v+	c #7B6B6B",
"w+	c #797575",
"x+	c #805353",
"y+	c #883030",
"z+	c #A45353",
"A+	c #E2E2E2",
"B+	c #66667E",
"C+	c #767679",
"D+	c #1F1F95",
"E+	c #8E1616",
"F+	c #7C6565",
"G+	c #7A7171",
"H+	c #886B6B",
"I+	c #F4F4F4",
"J+	c #3B3B8C",
"K+	c #585882",
"L+	c #08089C",
"M+	c #883131",
"N+	c #7A6F6F",
"O+	c #A6A6A6",
"P+	c #FAFAFA",
"Q+	c #6F6F7B",
"R+	c #920606",
"S+	c #7F5858",
"T+	c #797474",
"U+	c #8E8E8E",
"V+	c #E7E7E7",
"W+	c #474788",
"X+	c #444489",
"Y+	c #0A0A9C",
"Z+	c #8D1919",
"`+	c #900E0E",
" @	c #8A2929",
".@	c #7B6969",
"+@	c #8A8A8A",
"@@	c #DFDFDF",
"#@	c #6060BF",
"$@	c #454589",
"%@	c #141498",
"&@	c #64647E",
"*@	c #292992",
"=@	c #8C1E1E",
"-@	c #892C2C",
";@	c #7D6363",
">@	c #949494",
",@	c #EEEEEE",
"'@	c #FBFBFB",
")@	c #6A6AA3",
"!@	c #6C6C7C",
"~@	c #32328F",
"{@	c #4C4C86",
"]@	c #5D5D81",
"^@	c #6A4389",
"/@	c #7D6464",
"(@	c #910707",
"_@	c #8C1F1F",
":@	c #7D6161",
"<@	c #797777",
"[@	c #C3C3C3",
"}@	c #FDFDFD",
"|@	c #76767E",
"1@	c #777778",
"2@	c #6F5683",
"3@	c #8D1C1C",
"4@	c #7C6666",
"5@	c #956060",
"6@	c #F8F8F8",
"7@	c #E4E4F5",
"8@	c #2828AE",
"9@	c #8C8CD4",
"0@	c #930202",
"a@	c #910A0A",
"b@	c #901010",
"c@	c #F9F9FD",
"d@	c #CFCFED",
"e@	c #E5E5F5",
"f@	c #E1E1F4",
"g@	c #CBA3B1",
"h@	c #C27070",
"i@	c #D39898",
"                                                                                                ",
"                                                                                                ",
"                                                                                                ",
"                  . + @ # $ % & *                                     = - - - - - - - - ;       ",
"                > , ' ) ! ~ { ] ^ / *                                 ( _ _ _ _ _ _ _ : <       ",
"            [ } | 1 2 2 2 2 2 2 3 4 5 %                               - 6 6 6 6 6 6 6 7 8       ",
"          9 0 a 2 2 2 2 2 2 2 2 2 2 2 b c d     e f f f f f f f g     - 6 6 6 6 6 6 h i         ",
"        j k 2 2 2 2 2 2 2 2 2 2 2 2 2 2 l m     n o o o o o o o p     ( _ _ q 6 6 6 r s         ",
"      t u 1 2 2 2 2 2 2 2 2 2 2 2 2 2 2 2 v w   n o o o o o o o p     = - x y 6 6 6 z           ",
"      A B 2 2 2 2 2 2 2 2 2 2 2 2 2 2 2 2 a C D n o o o o o o o p       E F G 6 6 q H I         ",
"      J 2 2 2 2 2 2 2 2 2 2 2 2 2 2 2 2 2 2 K L n o o o o o o o p       M r N 6 6 6 O P =       ",
"    Q R 2 2 2 2 2 2 2 2 2 2 2 2 2 2 2 2 2 2 S T n o o o o o o o p       U V W X 6 6 6 Y Z       ",
"    ` 2 2 2 2 2 2 2 2 2 2 2 2 2 2 2 2 2 2 2 2  ...o o o o o o o p             - +.6 6 6 @.      ",
"    #.2 2 2 2 2 2 2 2 S $.%.&.2 2 2 2 2 2 2 2 *.=.o o o o o o o p     -.      ;.>.6 6 6 ,.      ",
"    '.2 2 2 2 2 2 2 2  .).* !.~.2 2 2 2 2 2 2 2 {.o o o o o o o p     ].^./.(._.:.6 6 6 <.      ",
"  [.v 2 2 2 2 2 2 2 2 k       ) 2 2 2 2 2 2 2 2 }.o o o o o o o p     - 6 6 6 6 6 6 6 |.1.      ",
"  9 2.2 2 2 2 2 2 2 2 3.      4.2 2 2 2 2 2 2 2 5.o o o o o o o p     - 6 6 6 6 6 6 6.7.;       ",
"  8.9.2 2 2 2 2 2 2 2 0.      a.2 2 2 2 2 2 2 2 b.o o o o o o o p     - 6 6 6 6 6 6 c.d.e.      ",
"  > f.2 2 2 2 2 2 2 2 0.      a.2 2 2 2 2 2 2 2 g.o o o o o o o p     h.i.j.k.l.m.n.            ",
"  > f.2 2 2 2 2 2 2 2 o.      a.2 2 2 2 2 2 2 2 p.o o o o o o o p                               ",
"  > f.2 2 2 2 2 2 2 2 3.      a.2 2 2 2 2 2 2 2 p.o o o o o o o p   q.r.s.t.u.v.w.              ",
"  > f.2 2 2 2 2 2 2 2 3.      a.2 2 2 2 2 2 2 2 p.o o o o o o o p x.y.z.A.B.C.D.E.F.            ",
"  > f.2 2 2 2 2 2 2 2 3.      a.2 2 2 2 2 2 2 2 p.o o o o o o o G.H.o o o o o o o G.I.          ",
"  > f.2 2 2 2 2 2 2 2 3.      a.2 2 2 2 2 2 2 2 p.o o o o o o o o o o o o o o o o o J.x.        ",
"  > f.2 2 2 2 2 2 2 2 K.0.0.0.L.2 2 2 2 2 2 2 2 p.o o o o o o o o o o o o o o o o o M.N.O.      ",
"  > f.2 2 2 2 2 2 2 2 2 2 2 2 2 2 2 2 2 2 2 2 2 p.o o o o o o o o o o o o o o o o o o P.Q.      ",
"  > f.2 2 2 2 2 2 2 2 2 2 2 2 2 2 2 2 2 2 2 2 2 p.o o o o o o o o o o o o o o o o o o B.R.      ",
"  > f.2 2 2 2 2 2 2 2 2 2 2 2 2 2 2 2 2 2 2 2 2 p.o o o o o o o o o o o o o o o o o o S.T.      ",
"  > f.2 2 2 2 2 2 2 2 2 2 2 2 2 2 2 2 2 2 2 2 2 p.o o o o o o o o o o o o o o o o o o o U.      ",
"  > f.2 2 2 2 2 2 2 2 2 2 2 2 2 2 2 2 2 2 2 2 2 p.o o o o o o o o V.W.X.o o o o o o o o Y.      ",
"  > f.2 2 2 2 2 2 2 2 2 2 2 Z.`.`.`.`. +.+`.`.`.++o o @+#+$+#+%+&+*+=+-+o o o o o o o o ;+      ",
"  > f.2 2 2 2 2 2 2 2 2 2 2 >+,+'+'+'+)+!+~+{+]+++o ^+/+(+_+_+:+<+[+  }+o o o o o o o o ;+      ",
"  > f.2 2 2 2 2 2 2 2 b ) ) |+1+'+'+'+2+3+4+)+5+p.6+7+'+8+9+0+a+b+[+  w.o o o o o o o o ;+      ",
"  > f.2 2 2 2 2 2 2 2 0.      c+d+'+'+{+e+f+g+2 p.h+i+'+j+k+l+m+n+o+    o o o o o o o o ;+      ",
"  > f.2 2 2 2 2 2 2 2 0.      p+q+r+'+'+s+t+S 2 p.u+v+'+'+w+x+y+z+A+    o o o o o o o o ;+      ",
"  > f.2 2 2 2 2 2 2 2 0.      a.g+B+'+'+C+D+2 2 p.E+F+'+'+'+'+G+H+I+    o o o o o o o o ;+      ",
"  > f.2 2 2 2 2 2 2 2 0.      a.2 J+'+'+'+K+L+2 p.o M+N+'+'+'+'+'+O+P+  o o o o o o o o ;+      ",
"  > f.2 2 2 2 2 2 2 2 0.      a.2  +Q+'+'+Q+e+2 p.R+E+#+S+T+'+'+'+U+V+  o o o o o o o o ;+      ",
"  > f.2 2 2 2 2 2 2 2 0.      a.5+W+X+'+'+'+)+Y+p.Z+7+0+`+ @.@'+'++@@@  o o o o o o o o ;+      ",
"  > f.2 2 2 2 2 2 2 2 0.      #@$@J+%@&@'+'+{+*@p.=@.@-@m+o @+;@'+>@,@  o o o o o o o o ;+      ",
"  > f.2 2 2 2 2 2 2 2 0.    '@)@!@~@L+{@'+'+'+]@^@=@.@/@%+(@_@:@<@[@}@  o o o o o o o o ;+      ",
"  > f.2 2 2 2 2 2 2 2 0.    @@|@'+B+%@]@'+'+'+1@2@3@/@/+i+_+4@.@5@6@    o o o o o o o o ;+      ",
"  7@'.8@8@8@8@8@8@8@8@9@      %.8@8@8@8@8@8@8@8@5.0@6+o 6+a@b@0+p       o o o o o o o o ;+      ",
"  c@$ d@d@d@d@d@d@d@d@e@      f@d@d@d@d@d@d@d@d@g@h@h@h@h@h@h@h@i@      h@h@h@h@h@h@h@h@u.      ",
"                                                                                                ",
"                                                                                                ",
"                                                                                                ",
"                                                                                                "};
